<svg width="84" height="84" viewBox="0 0 84 84" fill="none" xmlns="http://www.w3.org/2000/svg">
<path d="M84 42C84 65.196 65.196 84 42 84C18.804 84 0 65.196 0 42C0 18.804 18.804 0 42 0C65.196 0 84 18.804 84 42ZM6.46615 42C6.46615 61.6248 22.3752 77.5339 42 77.5339C61.6248 77.5339 77.5339 61.6248 77.5339 42C77.5339 22.3752 61.6248 6.46615 42 6.46615C22.3752 6.46615 6.46615 22.3752 6.46615 42Z" fill="white"/>
<path d="M84 42C84 18.804 65.196 -5.69961e-06 42 -3.67176e-06C18.804 -1.6439e-06 1.92978e-06 18.804 3.95764e-06 42C5.98549e-06 65.196 18.804 84 42 84C65.196 84 84 65.196 84 42ZM10.0464 42C10.0464 24.3525 24.3525 10.0464 42 10.0464C59.6475 10.0464 73.9536 24.3525 73.9536 42C73.9536 59.6475 59.6475 73.9536 42 73.9536C24.3525 73.9536 10.0464 59.6475 10.0464 42Z" fill="#E74C3C"/>
</svg>
