<svg width="84" height="84" viewBox="0 0 84 84" fill="none" xmlns="http://www.w3.org/2000/svg">
<path d="M84 42C84 65.196 65.196 84 42 84C18.804 84 0 65.196 0 42C0 18.804 18.804 0 42 0C65.196 0 84 18.804 84 42ZM6.46615 42C6.46615 61.6248 22.3752 77.5339 42 77.5339C61.6248 77.5339 77.5339 61.6248 77.5339 42C77.5339 22.3752 61.6248 6.46615 42 6.46615C22.3752 6.46615 6.46615 22.3752 6.46615 42Z" fill="white"/>
<path d="M42 3.95764e-06C50.5184 3.21294e-06 58.8355 2.59022 65.8475 7.42696C72.8596 12.2637 78.2352 19.1183 81.261 27.0812L71.8698 30.6498C69.5678 24.5916 65.478 19.3766 60.1432 15.6968C54.8084 12.017 48.4808 10.0464 42 10.0464L42 3.95764e-06Z" fill="#27AE60"/>
</svg>
