<svg width="84" height="84" viewBox="0 0 84 84" fill="none" xmlns="http://www.w3.org/2000/svg">
<path d="M84 42C84 65.196 65.196 84 42 84C18.804 84 7.62939e-06 65.196 7.62939e-06 42C7.62939e-06 18.804 18.804 7.62939e-06 42 7.62939e-06C65.196 7.62939e-06 84 18.804 84 42ZM6.46616 42C6.46616 61.6248 22.3752 77.5339 42 77.5339C61.6248 77.5339 77.5339 61.6248 77.5339 42C77.5339 22.3752 61.6248 6.46616 42 6.46616C22.3752 6.46616 6.46616 22.3752 6.46616 42Z" fill="white"/>
<path d="M42 3.95764e-06C48.7554 3.36706e-06 55.4111 1.6295 61.4025 4.75026C67.3939 7.87101 72.544 12.3909 76.4161 17.9265C80.2881 23.4621 82.7678 29.85 83.6447 36.5483C84.5215 43.2465 83.7698 50.0574 81.4531 56.4032C79.1365 62.749 75.3233 68.4423 70.3371 73.0001C65.351 77.5579 59.339 80.8458 52.8112 82.5847C46.2835 84.3236 39.4326 84.4623 32.8398 82.9889C26.247 81.5156 20.1069 78.4737 14.9404 74.1213L21.4131 66.4379C25.3437 69.7492 30.0151 72.0635 35.0309 73.1844C40.0467 74.3053 45.2589 74.1998 50.2252 72.8769C55.1915 71.5539 59.7655 69.0525 63.5589 65.5849C67.3524 62.1173 70.2534 57.7858 72.016 52.958C73.7785 48.1301 74.3504 42.9483 73.6833 37.8523C73.0162 32.7563 71.1296 27.8964 68.1838 23.6849C65.2379 19.4734 61.3197 16.0346 56.7614 13.6604C52.2032 11.2861 47.1395 10.0464 42 10.0464L42 3.95764e-06Z" fill="#D8A728"/>
</svg>
